<?xml version="1.0" encoding="UTF-8" standalone="no"?><!DOCTYPE svg PUBLIC "-//W3C//DTD SVG 1.1//EN" "http://www.w3.org/Graphics/SVG/1.1/DTD/svg11.dtd"><svg width="100%" height="100%" viewBox="0 0 1280 1280" version="1.1" xmlns="http://www.w3.org/2000/svg" xmlns:xlink="http://www.w3.org/1999/xlink" xml:space="preserve" xmlns:serif="http://www.serif.com/" style="fill-rule:evenodd;clip-rule:evenodd;stroke-linejoin:round;stroke-miterlimit:2;"><path d="M881.067,520.533l5.333,5.334l8.533,17.066l4.267,14.934l1.067,6.4l-0,19.2l-4.267,19.2l-6.4,16l-8.533,14.933l-9.6,12.8l-9.6,10.667l-7.467,8.533l-13.867,12.8l-14.933,11.733l-16,11.734l-19.2,11.733l-10.667,6.4l-24.533,12.8l-24.533,11.733l-33.067,12.8l-33.067,10.667l-34.133,8.533l-30.933,5.334l-36.267,3.2l-20.267,1.066l-60.8,0l-32,-5.333l-26.666,-6.4l-22.4,-7.467l-17.067,-8.533l-11.733,-8.533l-6.4,-9.6l-2.134,-10.667l1.067,-4.267l7.467,6.4l9.6,6.4l20.266,7.467l23.467,5.333l28.8,4.267l33.067,3.2l19.2,1.067l46.933,-0l38.4,-3.2l34.133,-5.334l29.867,-6.4l30.933,-8.533l46.934,-16l38.4,-16l29.866,-14.933l22.4,-13.867l17.067,-12.8l13.867,-11.733l7.466,-7.467l11.734,-14.933l8.533,-14.934l5.333,-12.8l4.267,-18.133l0,-23.467l-4.267,-18.133l-6.4,-16l-1.066,-4.267Z" style="fill:#e3953b;fill-rule:nonzero;"/><path d="M855.467,498.133l3.2,4.267l4.266,12.8l1.067,6.4l0,23.467l-4.267,18.133l-8.533,18.133l-9.6,13.867l-9.6,11.733l-16,16l-14.933,11.734l-14.934,10.666l-21.333,12.8l-24.533,12.8l-27.734,11.734l-22.4,8.533l-36.266,10.667l-43.734,9.6l-35.2,5.333l-34.133,3.2l-16,1.067l-48,-0l-24.533,-4.267l-29.867,-7.467l-20.267,-7.466l-13.866,-7.467l-9.6,-7.467l-5.334,-7.466l-1.066,-3.2l-0,-12.8l2.133,-4.267l3.2,1.067l4.267,7.466l9.6,6.4l12.8,5.334l18.133,5.333l22.4,4.267l28.8,3.2l20.267,2.133l17.066,1.067l28.8,-0l21.334,-1.067l34.133,-4.267l32,-6.4l27.733,-7.466l28.8,-9.6l39.467,-14.934l30.933,-13.866l26.667,-13.867l21.333,-13.867l13.867,-10.666l10.667,-9.6l9.6,-9.6l10.666,-14.934l7.467,-14.933l4.267,-18.133l-0,-14.934l-3.2,-16l-0,-3.2Z" style="fill:#e3953b;fill-rule:nonzero;"/><path d="M909.867,562.133l2.133,3.2l3.2,16l1.067,8.534l-0,21.333l-3.2,20.267l-7.467,22.4l-10.667,20.266l-12.8,18.134l-13.866,16l-14.934,14.933l-11.733,9.6l-18.133,13.867l-16,10.666l-16,9.6l-23.467,12.8l-24.533,11.734l-28.8,11.733l-23.467,8.533l-32,9.6l-36.267,8.534l-39.466,6.4l-25.6,2.133l-59.734,-0l-18.133,-1.067l-24.533,-4.266l-25.6,-6.4l-20.267,-7.467l-12.8,-7.467l-10.667,-9.6l-5.333,-9.6l-0,-2.133l4.267,2.133l10.666,6.4l17.067,6.4l17.067,4.267l28.8,4.267l32,3.2l13.866,1.066l35.2,0l34.134,-3.2l34.133,-6.4l41.6,-9.6l38.4,-10.666l38.4,-12.8l29.867,-11.734l32,-14.933l22.4,-12.8l22.4,-14.933l10.666,-8.534l13.867,-11.733l13.867,-13.867l11.733,-14.933l10.667,-17.067l7.466,-16l5.334,-16l3.2,-14.933l1.066,-10.667l0,-19.2l-1.066,-16Z" style="fill:#e3953b;fill-rule:nonzero;"/><path d="M880,281.6l2.133,1.067l-13.866,23.466l-17.067,28.8l-12.8,22.4l-9.6,20.267l2.133,6.4l10.667,22.4l4.267,-2.133l10.666,-8.534l1.067,0l-1.067,11.734l-5.333,25.6l-0,5.333l3.2,4.267l-1.067,8.533l-8.533,-1.067l-16,32l-4.267,5.334l0,-10.667l4.267,-34.133l-26.667,3.2l-22.4,67.2l-1.066,-0l-0,-9.6l6.4,-52.267l-0,-5.333l-5.334,-6.4l2.134,-4.267l4.266,-3.2l6.4,-43.733l-1.066,-5.334l-7.467,-9.6l-18.133,-17.066l-1.067,-2.134l-0,-6.4l9.6,-6.4l2.133,-1.066l7.467,-0l12.8,6.4l5.333,4.266l4.267,-2.133l10.667,-9.6l13.866,-12.8l25.6,-23.467l13.867,-12.8l8.533,-7.466l1.067,-1.067Zm-67.2,131.2l-4.267,8.533l0,2.134l5.334,-1.067l4.266,-4.267l-5.333,-5.333Z" style="fill:#1c74b4;fill-rule:nonzero;"/><path d="M409.6,602.667l1.067,-0l1.066,8.533l5.334,5.333l14.933,7.467l26.667,6.4l24.533,3.2l33.067,3.2l16,1.067l44.8,-0l29.866,-3.2l24.534,-5.334l13.866,-5.333l9.6,-6.4l3.2,-7.467l2.134,2.134l1.066,7.466l-3.2,7.467l-7.466,7.467l-17.067,8.533l-16,5.333l-23.467,5.334l-20.266,3.2l-40.534,3.2l-36.266,-0l-18.134,-2.134l-24.533,-5.333l-21.333,-6.4l-17.067,-8.533l-8.533,-6.4l-4.267,-5.334l-1.067,-2.133l0,-10.667l4.267,-7.466l3.2,-3.2Z" style="fill:#1c74b4;fill-rule:nonzero;"/><path d="M461.867,565.333l2.133,1.067l-2.133,2.133l-0,6.4l8.533,5.334l17.067,4.266l16,2.134l36.266,3.2l17.067,-0l21.333,-2.134l14.934,-3.2l10.666,-4.266l4.267,-4.267l2.133,-4.267l3.2,4.267l0,7.467l-4.266,5.333l-17.067,8.533l-20.267,5.334l-22.4,3.2l-17.066,1.066l-24.534,0l-14.933,-2.133l-17.067,-4.267l-13.866,-5.333l-9.6,-6.4l-3.2,-4.267l-0,-8.533l5.333,-6.4l7.467,-4.267Z" style="fill:#1c74b4;fill-rule:nonzero;"/><path d="M414.933,909.867l48,-0l0,12.8l-29.866,-0l-0,8.533l27.733,0l0,11.733l-27.733,0l-0,11.734l30.933,-0l0,12.8l-49.067,-0l0,-57.6Z" style="fill:#1c74b4;fill-rule:nonzero;"/><path d="M489.6,909.867l19.2,-0l5.333,12.8l16,42.666l0,2.134l-18.133,-0l-3.2,-8.534l-20.267,-1.066l-2.133,9.6l-18.133,-0l1.066,-5.334l19.2,-51.2l1.067,-1.066Zm8.533,16l-5.333,17.066l-0,2.134l11.733,-0l-2.133,-10.667l-3.2,-8.533l-1.067,-0Z" style="fill:#1c74b4;fill-rule:nonzero;"/><path d="M553.6,908.8l11.733,-0l10.667,3.2l5.333,6.4l2.134,7.467l-5.334,1.066l-11.733,0l-3.2,-5.333l-7.467,-1.067l-3.2,2.134l0,3.2l23.467,7.466l6.4,5.334l3.2,8.533l-2.133,9.6l-4.267,6.4l-8.533,4.267l-5.334,1.066l-12.8,0l-10.666,-3.2l-6.4,-7.466l-2.134,-4.267l0,-5.333l17.067,-1.067l2.133,6.4l3.2,2.133l10.667,0l-0,-7.466l-7.467,-3.2l-12.8,-4.267l-6.4,-4.267l-3.2,-3.2l-1.066,-3.2l-0,-9.6l4.266,-6.4l8.534,-4.266l5.333,-1.067Z" style="fill:#1c74b4;fill-rule:nonzero;"/><path d="M421.333,843.733l25.6,8.534l23.467,4.266l42.667,4.267l22.4,1.067l21.333,-0l28.8,-2.134l21.333,-3.2l20.267,-5.333l9.6,-3.2l-5.333,5.333l-13.867,6.4l-16,5.334l-21.333,4.266l-16,2.134l-13.867,1.066l-51.2,0l-27.733,-4.266l-22.4,-6.4l-10.667,-4.267l-11.733,-7.467l-5.334,-6.4Z" style="fill:#1c74b4;fill-rule:nonzero;"/><path d="M651.733,909.867l43.734,-0l-0,12.8l-26.667,-0l0,9.6l22.4,-0l0,11.733l-22.4,0l0,23.467l-17.067,-0l0,-57.6Z" style="fill:#e3953b;fill-rule:nonzero;"/><path d="M746.667,909.867l20.266,-0l10.667,18.133l11.733,-18.133l19.2,-0l-2.133,5.333l-13.867,20.267l-4.266,6.4l-1.067,25.6l-18.133,-0l-1.067,-24.534l-21.333,-32l-0,-1.066Z" style="fill:#e3953b;fill-rule:nonzero;"/><path d="M588.8,909.867l19.2,-0l6.4,9.6l4.267,7.466l2.133,0l9.6,-16l1.067,-1.066l19.2,-0l-5.334,9.6l-16,23.466l-1.066,24.534l-17.067,-0l-1.067,-24.534l-21.333,-32l-0,-1.066Z" style="fill:#1c74b4;fill-rule:nonzero;"/><path d="M705.067,909.867l17.066,-0l1.067,42.666l27.733,1.067l0,13.867l-45.866,-0l-0,-57.6Z" style="fill:#e3953b;fill-rule:nonzero;"/><path d="M517.333,554.667l5.334,-0l-0,2.133l12.8,2.133l10.666,-1.066l5.334,-1.067l2.133,2.133l-1.067,4.267l-6.4,3.2l-13.866,2.133l-11.734,0l-9.6,-3.2l-3.2,-5.333l5.334,-4.267l4.266,-1.066Z" style="fill:#1c74b4;fill-rule:nonzero;"/><path d="M488.533,880l11.734,1.067l28.8,2.133l14.933,0l20.267,-1.067l-4.267,2.134l-9.6,1.066l-25.6,1.067l-20.267,-2.133l-16,-3.2l0,-1.067Z" style="fill:#1c74b4;fill-rule:nonzero;"/><path d="M878.933,517.333l2.134,1.067l-1.067,2.133l-1.067,-3.2Z" style="fill:#e3953b;fill-rule:nonzero;"/></svg>